<svg id="Layer_1" data-name="Layer 1" xmlns="http://www.w3.org/2000/svg" viewBox="0 0 418.01 150.04"><defs><style>.cls-1{fill:#cc2427;}.cls-2{fill:#013d5b;}</style></defs><path id="Icon" class="cls-1" d="M283.69,108.52l-.05,0c-17.8,12.6-38.89,25.83-61.57,39.72l-.89.53a.66.66,0,0,0-.16.94.65.65,0,0,0,.93.16l.76-.39c19.24-10.05,41.33-22,63.57-34.19l.35-.2A28.09,28.09,0,0,1,283.69,108.52ZM400.52,13.94C372.46-17,191.93,10.83,115.16,27.61l-1.79.38a.69.69,0,0,0-.55.79.67.67,0,0,0,.78.55l1.78-.35C179,17.66,311.26,2,339.72,30.18c8.68,8.61,6.61,19.7-3.45,32.79a26,26,0,0,1,11,15.84C386.61,52.66,413,27.73,400.52,13.94Z"/><g id="Wordmark"><path class="cls-2" d="M295.05,100.39c.36,10.89,7.25,19.81,16.23,19.81,17.42,0,24.83-21.38,24.31-35.67-.37-10.91-7.43-19.81-16.41-19.81C304.2,64.72,294.54,86,295.05,100.39Zm-9.2-.58c-.65-18.58,13.91-37.58,35.06-37.58,14.14,0,23.4,9.42,23.92,23.85.67,19.6-12.93,37.59-35.06,37.59C295.62,123.67,286.36,114.27,285.85,99.81Z"/><path class="cls-2" d="M85.52,94.9a20.16,20.16,0,0,1-2.94.82c-1.2.27-3.41.66-6.61,1.17a11.58,11.58,0,0,0-4.61,1.43,3.45,3.45,0,0,0-1.47,2.26,2.18,2.18,0,0,0,1,2.32,7.66,7.66,0,0,0,4.26.9,14.5,14.5,0,0,0,4.39-.7,10.55,10.55,0,0,0,3.59-1.91,5.75,5.75,0,0,0,1.54-2.25A28.78,28.78,0,0,0,85.52,94.9Zm18.39-11.43a45.51,45.51,0,0,1-.83,5.81L100,106.74a3.23,3.23,0,0,0,1.75,3.6l-.1.68-17.81,0-.16-4.44a34.9,34.9,0,0,1-8.55,3.66,31,31,0,0,1-8.54,1.05c-5.75,0-9.05-.6-11.32-2.59s-3.43-3.42-3.32-6.25a9.59,9.59,0,0,1,2.16-5.18,13,13,0,0,1,4.74-3.31,25.14,25.14,0,0,1,7.14-2c3.15-.51,7.54-1,13.41-1.51a19.59,19.59,0,0,0,5.86-1.33c1.22-.47,1.7-1,1.88-2,.33-1.8-.24-2.82-2.62-3.29-6.42-1.26-18.44.81-24.64,2.37l3.37-9.09a163,163,0,0,1,23.9-2C99.93,75.11,104,78.77,103.91,83.47Z"/><path class="cls-2" d="M155.53,111l6.18-34.88h17L172.58,111Zm7.12-43c.51-2.87,5-5.19,10.09-5.19s8.76,2.32,8.27,5.19-5,5.19-10.11,5.19S162.14,70.93,162.65,68.06Z"/><path class="cls-2" d="M239.31,95a28.16,28.16,0,0,1-3,.82c-1.19.29-3.4.64-6.62,1.17a11.4,11.4,0,0,0-4.59,1.43,3.55,3.55,0,0,0-1.48,2.25,2.2,2.2,0,0,0,1,2.32,7.89,7.89,0,0,0,4.3.88,14.49,14.49,0,0,0,4.37-.67,10.86,10.86,0,0,0,3.6-1.91A5.9,5.9,0,0,0,238.42,99,28.7,28.7,0,0,0,239.31,95Zm18.38-11.45a41.59,41.59,0,0,1-.84,5.81l-3.09,17.48a3.26,3.26,0,0,0,1.74,3.61l-.11.61-17.8,0-.14-4.45a34.65,34.65,0,0,1-8.56,3.65,30.38,30.38,0,0,1-8.56,1c-5.75,0-9-.57-11.3-2.58s-3.44-3.42-3.32-6.24a9.27,9.27,0,0,1,2.15-5.18A12.85,12.85,0,0,1,212.61,94a26.76,26.76,0,0,1,7.12-2c3.16-.49,7.56-1,13.43-1.52A19.8,19.8,0,0,0,239,89.17c1.24-.48,1.73-1,1.92-2,.31-1.76-.25-2.81-2.62-3.29-6.44-1.27-18.44.82-24.63,2.36L217,77.14a162,162,0,0,1,23.9-2C253.71,75.17,257.8,78.85,257.69,83.53Z"/><path class="cls-2" d="M49.59,98.48A62.39,62.39,0,0,1,35.43,100C27.29,100,20.82,96,21.17,88.55c.25-4.94,6.1-15.36,21-15.36a24.29,24.29,0,0,1,13.25,3.63l2.16-12.11a41,41,0,0,0-16.86-2.85C21.21,62.07,2.49,70.93.17,88.94c-2.36,18.3,20,22.9,29.92,22.86,5.73,0,11.68-.25,17.24-.83Z"/><path class="cls-2" d="M188.15,75.94l1.23-7.11L207.21,65l-1.89,11h8.73l-1.66,7-8.47,0L198.77,111s-17.17-.11-17.23,0l5.13-28h-6.49l1.32-7.07Z"/><polygon class="cls-2" points="275 110.99 257.63 111.02 266.37 62.35 283.29 62.83 275 110.99"/><path class="cls-2" d="M133,84.31a9.85,9.85,0,0,0-6,2,9.14,9.14,0,0,0-3.37,6c-.54,3-.23,5.22,1,6.58a6.76,6.76,0,0,0,5.27,2,10.28,10.28,0,0,0,4.34-.86,8.52,8.52,0,0,0,3.34-2.87,11.38,11.38,0,0,0,1.87-4.6c.49-2.76.08-4.82-1.2-6.18A6.53,6.53,0,0,0,133,84.31Zm-31,38.75,8.3-46.75h15l-1.16,6a14.34,14.34,0,0,1,6.24-4.44A25.53,25.53,0,0,1,140,75.78c3.91,0,6.32.21,9.25,1.73a12.37,12.37,0,0,1,6,6.62,17.33,17.33,0,0,1,.74,9.49,20.63,20.63,0,0,1-8.42,13.65c-4.57,3.33-8.68,4.21-14.56,4.23a22.35,22.35,0,0,1-5.26-.56,11.87,11.87,0,0,1-3.4-1.37,15.81,15.81,0,0,1-2.81-2.53l-2.79,16Z"/><path class="cls-2" d="M411.48,88.6c-.1-2.82-1.51-4.71-4.41-4.71-7,0-14.43,13.7-15.72,19.23C402.83,103.12,411.76,96.28,411.48,88.6Zm1.5,21.47,1.35.91c-3.41,7-10.36,12.54-18.52,12.54-6.68,0-12.15-4.44-12.44-12.79-.54-15,13.47-28.83,24.94-28.83,4.92,0,9.48,2.15,9.69,7.44.42,11.89-16.28,15.53-27.27,15.77a13.49,13.49,0,0,0-.43,4.4c.18,4.92,3.17,9.07,9.33,9.07C405,118.58,410.29,114.29,413,110.07Z"/><path class="cls-2" d="M344.57,88.2c1.19-.15,3.09-.36,3.92-.36,1.25,0,2.43.23,2.49,1.48,0,.73-1.31,6-1.59,7.26l-2.66,11.72c-1.07,4.8-2.24,9.83-3.27,13.8h6.83l3.84-18.58c11.72-12.21,16.23-16.18,19-16.18a2,2,0,0,1,2.16,2.14c.07,2.15-1.26,7-1.72,8.42l-3.92,13.55a28.29,28.29,0,0,0-1.49,7.75c.12,3,1.92,4.3,4.59,4.3,5,0,8.61-5.2,11.78-10.31l-.93-1.68c-1.28,2.06-4.24,6.54-6.57,6.54-.74,0-1.44-.49-1.46-1.73a19.87,19.87,0,0,1,1.05-5.52L381,94.92c1.16-4.37,1.72-7.18,1.69-8.68-.1-3-1.84-4.35-4.49-4.35-4.49,0-10.46,3.29-23.1,17.83h-.18l1.59-7.1c.87-3.88,1.71-7.93,2.53-10.73A113.75,113.75,0,0,1,344.51,86Z"/></g></svg>