<svg xmlns="http://www.w3.org/2000/svg" version="1.1" xmlns:xlink="http://www.w3.org/1999/xlink" xmlns:svgjs="http://svgjs.dev/svgjs" width="1000" height="290" viewBox="0 0 1000 290"><g transform="matrix(1,0,0,1,-0.6060606060606233,0.22094602422109233)"><svg viewBox="0 0 396 115" data-background-color="#dedede" preserveAspectRatio="xMidYMid meet" height="290" width="1000" xmlns="http://www.w3.org/2000/svg" xmlns:xlink="http://www.w3.org/1999/xlink"><g id="tight-bounds" transform="matrix(1,0,0,1,0.2400000000000091,-0.08761652684628984)"><svg viewBox="0 0 395.52 115.17523305369258" height="115.17523305369258" width="395.52"><g><svg viewBox="0 0 588.0551903029469 171.24138751915316" height="115.17523305369258" width="395.52"><g><rect width="3.5515014670091434" height="171.24138751915316" x="179.68656457675158" y="0" fill="#004879" opacity="1" stroke-width="0" stroke="transparent" fill-opacity="1" class="rect-r$-0" data-fill-palette-color="primary" rx="1%" id="r$-0" data-palette-color="#004879"></rect></g><g transform="matrix(1,0,0,1,192.53519030294694,0.42597360079390967)"><svg viewBox="0 0 395.52 170.38944031756535" height="170.38944031756535" width="395.52"><g id="textblocktransform"><svg viewBox="0 0 395.52 170.38944031756535" height="170.38944031756535" width="395.52" id="textblock"><g><svg viewBox="0 0 395.52 170.38944031756535" height="170.38944031756535" width="395.52"><g transform="matrix(1,0,0,1,0,0)"><svg width="395.52" viewBox="0.7600000000000033 -36.24999999999999 372.12000000000006 155.97" height="170.38944031756535" data-palette-color="#004879"><svg></svg><svg></svg><svg></svg><svg></svg><g class="wordmark-text-0" data-fill-palette-color="primary" id="text-0"><path d="M18.19-13.45v-7.45h15.4v19.24c-4.18 1.433-8.777 2.15-13.79 2.15v0c-5.5 0-9.753-1.597-12.76-4.79-3-3.187-4.5-7.733-4.5-13.64v0c0-5.767 1.643-10.253 4.93-13.46 3.287-3.207 7.893-4.81 13.82-4.81v0c2.247 0 4.367 0.213 6.36 0.64 1.993 0.42 3.73 0.957 5.21 1.61v0l-3.05 7.57c-2.573-1.273-5.397-1.91-8.47-1.91v0c-2.82 0-4.997 0.917-6.53 2.75-1.54 1.833-2.31 4.45-2.31 7.85v0c0 3.333 0.697 5.877 2.09 7.63 1.387 1.747 3.393 2.62 6.02 2.62v0c1.427 0 2.743-0.137 3.95-0.41v0-5.59zM74.27-17.9v0c0 6.007-1.473 10.573-4.42 13.7-2.947 3.127-7.26 4.69-12.94 4.69v0c-5.6 0-9.893-1.57-12.88-4.71-2.987-3.147-4.48-7.72-4.48-13.72v0c0-5.947 1.487-10.487 4.46-13.62 2.967-3.127 7.283-4.69 12.95-4.69v0c5.68 0 9.983 1.553 12.91 4.66 2.933 3.107 4.4 7.67 4.4 13.69zM49.71-17.9v0c0 6.907 2.4 10.36 7.2 10.36v0c2.44 0 4.25-0.84 5.43-2.52 1.18-1.673 1.77-4.287 1.77-7.84v0c0-3.56-0.597-6.19-1.79-7.89-1.2-1.7-2.987-2.55-5.36-2.55v0c-4.833 0-7.25 3.48-7.25 10.44zM104.1 0h-23.39v-35.69h9.65v27.9h13.74zM140.11-18.6v0c0 5.953-1.64 10.543-4.92 13.77-3.28 3.22-7.89 4.83-13.83 4.83v0h-11.55v-35.69h12.36c5.727 0 10.15 1.463 13.27 4.39 3.113 2.933 4.67 7.167 4.67 12.7zM130.1-18.26v0c0-3.273-0.647-5.7-1.94-7.28-1.293-1.58-3.257-2.37-5.89-2.37v0h-2.81v20h2.15c2.927 0 5.073-0.85 6.44-2.55 1.367-1.7 2.05-4.3 2.05-7.8zM167.7-7.86v7.86h-21.19v-35.69h21.19v7.74h-11.55v5.61h10.7v7.74h-10.7v6.74zM207.93-35.69v35.69h-12.64l-13.04-25.15h-0.22c0.313 3.96 0.47 6.98 0.47 9.06v0 16.09h-8.55v-35.69h12.6l12.99 24.8h0.14c-0.227-3.593-0.34-6.483-0.34-8.67v0-16.13z" fill="#004879" fill-rule="nonzero" stroke="none" stroke-width="1" stroke-linecap="butt" stroke-linejoin="miter" stroke-miterlimit="10" stroke-dasharray="" stroke-dashoffset="0" font-family="none" font-weight="none" font-size="none" text-anchor="none" style="mix-blend-mode: normal" data-fill-palette-color="primary" opacity="1"></path><path transform="translate(0,39.74)" d="M34.45-35.69v35.69h-9.69v-14.55h-11.21v14.55h-9.69v-35.69h9.69v13.23h11.21v-13.23zM75.56-17.9v0c0 6.007-1.473 10.573-4.42 13.7-2.947 3.127-7.26 4.69-12.94 4.69v0c-5.6 0-9.893-1.57-12.88-4.71-2.987-3.147-4.48-7.72-4.48-13.72v0c0-5.947 1.487-10.487 4.46-13.62 2.973-3.127 7.29-4.69 12.95-4.69v0c5.68 0 9.987 1.553 12.92 4.66 2.927 3.107 4.39 7.67 4.39 13.69zM51-17.9v0c0 6.907 2.4 10.36 7.2 10.36v0c2.447 0 4.26-0.84 5.44-2.52 1.18-1.673 1.77-4.287 1.77-7.84v0c0-3.56-0.6-6.19-1.8-7.89-1.193-1.7-2.98-2.55-5.36-2.55v0c-4.833 0-7.25 3.48-7.25 10.44zM94.09-12.99h-2.44v12.99h-9.64v-35.69h11.69c9.7 0 14.55 3.513 14.55 10.54v0c0 4.133-2.017 7.333-6.05 9.6v0l10.4 15.55h-10.94zM91.65-28.39v8.15h1.81c3.367 0 5.05-1.49 5.05-4.47v0c0-2.453-1.653-3.68-4.96-3.68v0zM125.54 0h-9.7v-35.69h9.7zM158.69-7.79v7.79h-27.81v-5.96l15.46-21.95h-15.09v-7.78h27.05v5.93l-15.45 21.97zM197.19-17.9v0c0 6.007-1.473 10.573-4.42 13.7-2.947 3.127-7.26 4.69-12.94 4.69v0c-5.593 0-9.883-1.57-12.87-4.71-2.987-3.147-4.48-7.72-4.48-13.72v0c0-5.947 1.483-10.487 4.45-13.62 2.973-3.127 7.29-4.69 12.95-4.69v0c5.68 0 9.987 1.553 12.92 4.66 2.927 3.107 4.39 7.67 4.39 13.69zM172.63-17.9v0c0 6.907 2.4 10.36 7.2 10.36v0c2.447 0 4.26-0.84 5.44-2.52 1.18-1.673 1.77-4.287 1.77-7.84v0c0-3.56-0.6-6.19-1.8-7.89-1.193-1.7-2.98-2.55-5.36-2.55v0c-4.833 0-7.25 3.48-7.25 10.44zM237.62-35.69v35.69h-12.64l-13.04-25.15h-0.22c0.307 3.96 0.46 6.98 0.46 9.06v0 16.09h-8.54v-35.69h12.6l12.98 24.8h0.15c-0.227-3.593-0.34-6.483-0.34-8.67v0-16.13z" fill="#004879" fill-rule="nonzero" stroke="none" stroke-width="1" stroke-linecap="butt" stroke-linejoin="miter" stroke-miterlimit="10" stroke-dasharray="" stroke-dashoffset="0" font-family="none" font-weight="none" font-size="none" text-anchor="none" style="mix-blend-mode: normal" data-fill-palette-color="primary" opacity="1"></path><path transform="translate(0,79.49)" d="M51.2-35.69l-8.79 35.69h-11.4l-3.42-15.55c-0.167-0.653-0.423-1.947-0.77-3.88-0.353-1.94-0.61-3.56-0.77-4.86v0c-0.133 1.053-0.343 2.367-0.63 3.94-0.293 1.573-0.583 3.017-0.87 4.33-0.287 1.32-1.47 6.66-3.55 16.02v0h-11.41l-8.83-35.69h9.3l3.88 17.89c0.88 3.953 1.483 7.103 1.81 9.45v0c0.207-1.66 0.583-3.913 1.13-6.76 0.547-2.847 1.057-5.207 1.53-7.08v0l3.15-13.5h8.93l3.05 13.5c0.527 2.16 1.057 4.657 1.59 7.49 0.54 2.833 0.9 4.95 1.08 6.35v0c0.207-1.807 0.783-4.94 1.73-9.4v0l3.95-17.94zM77-7.86v7.86h-21.19v-35.69h21.19v7.74h-11.55v5.61h10.7v7.74h-10.7v6.74zM115.7 0h-10.55l-1.76-6.69h-11.59l-1.81 6.69h-10.6l11.65-35.84h12.87zM93.8-14.6h7.59l-1.54-5.86c-0.353-1.3-0.787-2.983-1.3-5.05-0.513-2.067-0.853-3.55-1.02-4.45v0c-0.147 0.833-0.433 2.203-0.86 4.11-0.433 1.9-1.39 5.65-2.87 11.25zM142.94 0h-23.38v-35.69h9.64v27.9h13.74zM164.4-27.81v27.81h-9.64v-27.81h-8.72v-7.88h27.06v7.88zM208.79-35.69v35.69h-9.69v-14.55h-11.21v14.55h-9.69v-35.69h9.69v13.23h11.21v-13.23z" fill="#004879" fill-rule="nonzero" stroke="none" stroke-width="1" stroke-linecap="butt" stroke-linejoin="miter" stroke-miterlimit="10" stroke-dasharray="" stroke-dashoffset="0" font-family="none" font-weight="none" font-size="none" text-anchor="none" style="mix-blend-mode: normal" data-fill-palette-color="primary" opacity="1"></path><path transform="translate(0,119.23)" d="M28.59 0h-9.18l-7.3-25.71h-0.22c0.34 4.38 0.51 7.783 0.51 10.21v0 15.5h-8.54v-35.69h12.84l7.45 25.34h0.19l7.3-25.34h12.87v35.69h-8.87v-15.65c0-0.813 0.013-1.717 0.04-2.71 0.027-0.993 0.137-3.427 0.33-7.3v0h-0.22zM84.64 0h-10.54l-1.76-6.69h-11.6l-1.8 6.69h-10.6l11.65-35.84h12.86zM62.74-14.6h7.6l-1.54-5.86c-0.36-1.3-0.797-2.983-1.31-5.05-0.513-2.067-0.85-3.55-1.01-4.45v0c-0.147 0.833-0.437 2.203-0.87 4.11-0.427 1.9-1.383 5.65-2.87 11.25zM122.49-35.69v35.69h-12.65l-13.04-25.15h-0.22c0.313 3.96 0.47 6.98 0.47 9.06v0 16.09h-8.55v-35.69h12.6l12.99 24.8h0.14c-0.227-3.593-0.34-6.483-0.34-8.67v0-16.13zM162.65 0h-10.55l-1.76-6.69h-11.59l-1.81 6.69h-10.6l11.65-35.84h12.86zM140.75-14.6h7.59l-1.54-5.86c-0.36-1.3-0.793-2.983-1.3-5.05-0.513-2.067-0.853-3.55-1.02-4.45v0c-0.147 0.833-0.433 2.203-0.86 4.11-0.433 1.9-1.39 5.65-2.87 11.25zM180.83-13.45v-7.45h15.41v19.24c-4.18 1.433-8.777 2.15-13.79 2.15v0c-5.507 0-9.76-1.597-12.76-4.79-3-3.187-4.5-7.733-4.5-13.64v0c0-5.767 1.643-10.253 4.93-13.46 3.287-3.207 7.893-4.81 13.82-4.81v0c2.24 0 4.36 0.213 6.36 0.64 1.993 0.42 3.73 0.957 5.21 1.61v0l-3.05 7.57c-2.573-1.273-5.4-1.91-8.48-1.91v0c-2.813 0-4.99 0.917-6.53 2.75-1.533 1.833-2.3 4.45-2.3 7.85v0c0 3.333 0.693 5.877 2.08 7.63 1.393 1.747 3.4 2.62 6.02 2.62v0c1.433 0 2.753-0.137 3.96-0.41v0-5.59zM224.71-7.86v7.86h-21.19v-35.69h21.19v7.74h-11.55v5.61h10.69v7.74h-10.69v6.74zM255.69 0h-9.18l-7.3-25.71h-0.22c0.34 4.38 0.51 7.783 0.51 10.21v0 15.5h-8.54v-35.69h12.84l7.45 25.34h0.19l7.3-25.34h12.87v35.69h-8.87v-15.65c0-0.813 0.013-1.717 0.04-2.71 0.027-0.993 0.137-3.427 0.33-7.3v0h-0.22zM300.49-7.86v7.86h-21.19v-35.69h21.19v7.74h-11.55v5.61h10.69v7.74h-10.69v6.74zM340.72-35.69v35.69h-12.64l-13.04-25.15h-0.22c0.307 3.96 0.46 6.98 0.46 9.06v0 16.09h-8.54v-35.69h12.6l12.98 24.8h0.15c-0.227-3.593-0.34-6.483-0.34-8.67v0-16.13zM364.18-27.81v27.81h-9.64v-27.81h-8.71v-7.88h27.05v7.88z" fill="#004879" fill-rule="nonzero" stroke="none" stroke-width="1" stroke-linecap="butt" stroke-linejoin="miter" stroke-miterlimit="10" stroke-dasharray="" stroke-dashoffset="0" font-family="none" font-weight="none" font-size="none" text-anchor="none" style="mix-blend-mode: normal" data-fill-palette-color="primary" opacity="1"></path></g></svg></g></svg></g></svg></g></svg></g><g transform="matrix(1,0,0,1,0,0.42597360079390967)"><svg viewBox="0 0 170.38944031756535 170.38944031756535" height="170.38944031756535" width="170.38944031756535"><g><svg xmlns="http://www.w3.org/2000/svg" xmlns:xlink="http://www.w3.org/1999/xlink" version="1.1" baseProfile="tiny" x="0" y="0" viewBox="0 0 100 100" xml:space="preserve" height="170.38944031756535" width="170.38944031756535" class="icon-icon-0" data-fill-palette-color="accent" id="icon-0"><path d="M100 52.993v-6.004H53.466v-3.947h45.905c0 0-3.666-37.641-41.991-42.47v34.642h31.661c0 0-5.333-14.49-13.331-17.821v11.992H63.546V8.566c0 0 22.161 3.165 29.327 29.313l-39.407-0.232V0h-6.005v37.611L8.058 37.379c0 0 5.331-23.317 29.826-29.812l-0.333 21.818H25.554V17.061c0 0-9.998 4.996-13.997 18.154H43.05V0.739c0 0-37.326 5.496-42.491 42.303h46.902v3.947H0v6.004h47.461v4.537H0.642c5.166 36.806 42.492 42.302 42.492 42.302V65.357H11.64c3.999 13.158 13.997 18.154 13.997 18.154V71.187h11.998l0.333 21.818C13.473 86.51 8.141 63.192 8.141 63.192l39.32-0.231v36.988h6.005V62.925l39.49-0.231c-7.165 26.147-29.327 29.313-29.327 29.313V71.187h12.165v11.991c7.998-3.33 13.33-17.819 13.33-17.819H57.463V100c38.326-4.829 41.992-42.47 41.992-42.47H53.466v-4.537H100z" fill="#d22e1e" data-fill-palette-color="accent"></path></svg></g></svg></g></svg></g><defs></defs></svg><rect width="395.52" height="115.17523305369258" fill="none" stroke="none" visibility="hidden"></rect></g></svg></g></svg>